{
    "asset" : {
        "generator" : "Khronos glTF Blender I/O v1.4.40",
        "version" : "2.0"
    },
    "scene" : 0,
    "scenes" : [
        {
            "name" : "Scene",
            "nodes" : [
                0,
                1,
                2
            ]
        }
    ],
    "nodes" : [
        {
            "name" : "Camera",
            "rotation" : [
                0.6387335658073425,
                0.33224862813949585,
                -0.35635942220687866,
                0.5955151319503784
            ],
            "translation" : [
                7.067654609680176,
                0.6195430755615234,
                7.3718132972717285
            ]
        },
        {
            "name" : "Cylinder",
            "translation" : [
                0,
                0.9493139982223511,
                -5.058823585510254
            ]
        },
        {
            "mesh" : 0,
            "name" : "Fox_by_vladhad22@gmail.com",
            "rotation" : [
                0.030553992837667465,
                -0.05120381712913513,
                0.011214468628168106,
                0.9981577396392822
            ],
            "translation" : [
                0.5596355199813843,
                1.0510311126708984,
                2.475412130355835
            ]
        }
    ],
    "materials" : [
        {
            "doubleSided" : true,
            "name" : "Material.001",
            "pbrMetallicRoughness" : {
                "baseColorFactor" : [
                    0.800000011920929,
                    0.800000011920929,
                    0.800000011920929,
                    1
                ],
                "metallicFactor" : 0,
                "roughnessFactor" : 0.5
            }
        }
    ],
    "meshes" : [
        {
            "name" : "Cube.001",
            "primitives" : [
                {
                    "attributes" : {
                        "POSITION" : 0,
                        "NORMAL" : 1,
                        "TEXCOORD_0" : 2
                    },
                    "indices" : 3,
                    "material" : 0
                }
            ]
        }
    ],
    "accessors" : [
        {
            "bufferView" : 0,
            "componentType" : 5126,
            "count" : 1594,
            "max" : [
                0.5973817706108093,
                1.1825017929077148,
                2.183100938796997
            ],
            "min" : [
                -0.5452020168304443,
                -1.348118543624878,
                -3.2539262771606445
            ],
            "type" : "VEC3"
        },
        {
            "bufferView" : 1,
            "componentType" : 5126,
            "count" : 1594,
            "type" : "VEC3"
        },
        {
            "bufferView" : 2,
            "componentType" : 5126,
            "count" : 1594,
            "type" : "VEC2"
        },
        {
            "bufferView" : 3,
            "componentType" : 5123,
            "count" : 2346,
            "type" : "SCALAR"
        }
    ],
    "bufferViews" : [
        {
            "buffer" : 0,
            "byteLength" : 19128,
            "byteOffset" : 0
        },
        {
            "buffer" : 0,
            "byteLength" : 19128,
            "byteOffset" : 19128
        },
        {
            "buffer" : 0,
            "byteLength" : 12752,
            "byteOffset" : 38256
        },
        {
            "buffer" : 0,
            "byteLength" : 4692,
            "byteOffset" : 51008
        }
    ],
    "buffers" : [
        {
            "byteLength" : 55700,
            "uri" : "data:application/octet-stream;base64,"
        }
    ]
}
